<svg width="12" height="12" viewBox="0 0 12 12" fill="none" xmlns="http://www.w3.org/2000/svg">
<path d="M11.4375 5.59375C11.4375 5.74293 11.3782 5.88601 11.2727 5.9915C11.1673 6.09699 11.0242 6.15625 10.875 6.15625H6.5625V10.4688C6.5625 10.6179 6.50324 10.761 6.39775 10.8665C6.29226 10.972 6.14918 11.0312 6 11.0312C5.85082 11.0312 5.70774 10.972 5.60225 10.8665C5.49676 10.761 5.4375 10.6179 5.4375 10.4688V6.15625H1.125C0.975816 6.15625 0.832742 6.09699 0.727252 5.9915C0.621763 5.88601 0.5625 5.74293 0.5625 5.59375C0.5625 5.44457 0.621763 5.30149 0.727252 5.196C0.832742 5.09051 0.975816 5.03125 1.125 5.03125H5.4375V0.71875C5.4375 0.569566 5.49676 0.426492 5.60225 0.321002C5.70774 0.215513 5.85082 0.15625 6 0.15625C6.14918 0.15625 6.29226 0.215513 6.39775 0.321002C6.50324 0.426492 6.5625 0.569566 6.5625 0.71875V5.03125H10.875C11.0242 5.03125 11.1673 5.09051 11.2727 5.196C11.3782 5.30149 11.4375 5.44457 11.4375 5.59375Z" fill="black"/>
</svg>
