<svg width="24" height="25" viewBox="0 0 24 25" fill="none" xmlns="http://www.w3.org/2000/svg">
<path fill-rule="evenodd" clip-rule="evenodd" d="M12.7576 1.00571C12.3101 0.664763 11.6899 0.664763 11.2424 1.00571L1.89114 8.13051C1.27052 8.60337 0.90625 9.33886 0.90625 10.1191V22C0.90625 23.5151 2.23797 24.5 3.5625 24.5H8.25H15.75H20.4375C21.762 24.5 23.0938 23.5151 23.0938 22V10.1191C23.0938 9.33886 22.7295 8.60337 22.1089 8.13051L12.7576 1.00571ZM17 22H20.4375C20.517 22 20.5688 21.9744 20.5938 21.9558V10.1191L12 3.57147L3.40625 10.1191L3.40625 21.9558C3.43115 21.9744 3.48303 22 3.5625 22H7V14.5C7 13.8096 7.55964 13.25 8.25 13.25H15.75C16.4404 13.25 17 13.8096 17 14.5V22ZM9.5 22H14.5V15.75H9.5V22Z" fill="white" fill-opacity="0.5"/>
</svg>
