<svg width="12" height="12" viewBox="0 0 12 12" fill="none" xmlns="http://www.w3.org/2000/svg">
<path d="M11.793 2.75878C11.6634 2.11423 11.3404 1.52449 10.8672 1.06812C10.3939 0.611751 9.79282 0.310421 9.144 0.204277C8.65651 0.126568 8.15766 0.162632 7.68642 0.30965C7.21518 0.456669 6.78432 0.71066 6.4275 1.05178C6.31135 1.15979 6.15861 1.21984 6 1.21984C5.84138 1.21984 5.68865 1.15979 5.5725 1.05178C4.98007 0.478758 4.1896 0.156082 3.36541 0.150822C2.54122 0.145562 1.7467 0.458123 1.14701 1.02353C0.547315 1.58894 0.18858 2.36371 0.14537 3.18679C0.102161 4.00986 0.377802 4.81793 0.914996 5.44303L5.352 10.7305C5.43141 10.825 5.53053 10.901 5.6424 10.9531C5.75428 11.0052 5.8762 11.0322 5.99962 11.0322C6.12304 11.0322 6.24496 11.0052 6.35684 10.9531C6.46872 10.901 6.56784 10.825 6.64725 10.7305L11.0842 5.44303C11.398 5.07883 11.6249 4.64806 11.7476 4.18329C11.8704 3.71852 11.8859 3.23192 11.793 2.76028V2.75878Z" fill="white"/>
</svg>
