<svg width="24" height="24" viewBox="0 0 24 24" fill="none" xmlns="http://www.w3.org/2000/svg">
<path fill-rule="evenodd" clip-rule="evenodd" d="M20.75 10.75C20.75 14.8921 17.3921 18.25 13.25 18.25C9.10786 18.25 5.75 14.8921 5.75 10.75C5.75 6.60786 9.10786 3.25 13.25 3.25C17.3921 3.25 20.75 6.60786 20.75 10.75ZM23.25 10.75C23.25 16.2728 18.7728 20.75 13.25 20.75C10.9391 20.75 8.8113 19.9661 7.11795 18.6498L2.88388 22.8839C2.39573 23.372 1.60427 23.372 1.11612 22.8839C0.627961 22.3957 0.627961 21.6043 1.11612 21.1161L5.35018 16.8821C4.03385 15.1887 3.25 13.0609 3.25 10.75C3.25 5.22715 7.72715 0.75 13.25 0.75C18.7728 0.75 23.25 5.22715 23.25 10.75Z" fill="white" fill-opacity="0.5"/>
</svg>
