<svg width="18" height="20" viewBox="0 0 18 20" fill="none" xmlns="http://www.w3.org/2000/svg">
<path d="M1.225 0.207008L16.9633 9.29301C17.0874 9.36472 17.1903 9.4678 17.2619 9.59189C17.3335 9.71599 17.3712 9.85674 17.3712 10C17.3712 10.1433 17.3335 10.284 17.2619 10.4081C17.1903 10.5322 17.0874 10.6353 16.9633 10.707L1.225 19.793C1.10087 19.8647 0.960064 19.9024 0.81673 19.9024C0.673397 19.9024 0.532585 19.8647 0.408443 19.7931C0.284302 19.7214 0.181204 19.6184 0.109508 19.4943C0.0378123 19.3701 4.45896e-05 19.2293 0 19.086V0.914008C4.45896e-05 0.770674 0.0378123 0.629877 0.109508 0.505763C0.181204 0.38165 0.284302 0.278592 0.408443 0.206944C0.532585 0.135297 0.673397 0.0975841 0.81673 0.0975952C0.960064 0.0976064 1.10087 0.135341 1.225 0.207008Z" fill="black"/>
</svg>
