<svg width="18" height="18" viewBox="0 0 18 18" fill="none" xmlns="http://www.w3.org/2000/svg">
<path fill-rule="evenodd" clip-rule="evenodd" d="M9 0C4.0303 0 0 4.03201 0 8.99846C0 13.9679 4.0303 18 9 18C13.9697 18 18 13.9679 18 8.99846C18 4.03201 13.9697 0 9 0ZM9 1.77179C13 1.77179 16.2121 5.00891 16.2121 8.99846C16.2121 12.991 13 16.2282 9 16.2282C5 16.2282 1.78788 12.991 1.78788 8.99846C1.78788 5.00891 5 1.77179 9 1.77179ZM9 5.63696C7.15152 5.63696 5.63636 7.14476 5.63636 8.99846C5.63636 10.8552 7.15152 12.363 9 12.363C10.8485 12.363 12.3636 10.8552 12.3636 8.99846C12.3636 7.14476 10.8485 5.63696 9 5.63696ZM9 7.40568C9.87879 7.40568 10.6061 8.12167 10.6061 8.99846C10.6061 9.87828 9.87879 10.5943 9 10.5943C8.12121 10.5943 7.39394 9.87828 7.39394 8.99846C7.39394 8.12167 8.12121 7.40568 9 7.40568Z" fill="white" fill-opacity="0.5"/>
</svg>
