<svg width="24" height="24" viewBox="0 0 24 24" fill="none" xmlns="http://www.w3.org/2000/svg">
<path fill-rule="evenodd" clip-rule="evenodd" d="M4.5 0.75C3.80964 0.75 3.25 1.30964 3.25 2C3.25 2.69036 3.80964 3.25 4.5 3.25H9.77384L11.7755 5.10445L12.135 5.4375H12.625H20.75V19.5C20.75 20.1904 21.3096 20.75 22 20.75C22.6904 20.75 23.25 20.1904 23.25 19.5V5.4375C23.25 4.05679 22.1307 2.9375 20.75 2.9375H13.115L11.4729 1.4161C11.0107 0.987897 10.4039 0.75 9.77384 0.75H4.5ZM8.99621 9.71913L9.72598 10.4375H10.75H15.75V20.75H3.25V8.25H7.50376L8.99621 9.71913ZM8.89266 6.10918L10.75 7.9375H17C17.6904 7.9375 18.25 8.49714 18.25 9.1875V22C18.25 22.6904 17.6904 23.25 17 23.25H2C1.30964 23.25 0.75 22.6904 0.75 22V7C0.75 6.30964 1.30964 5.75 2 5.75H8.01577C8.34388 5.75 8.65883 5.87901 8.89266 6.10918Z" fill="white" fill-opacity="0.5"/>
</svg>
